<mxfile host="app.diagrams.net" agent="Mozilla/5.0 (Windows NT 10.0; Win64; x64; rv:142.0) Gecko/20100101 Firefox/142.0" version="28.2.0">
  <diagram name="Page-1" id="Bm6_okvl0reHoI9gJbLS">
    <mxGraphModel dx="2618" dy="1415" grid="1" gridSize="10" guides="1" tooltips="1" connect="1" arrows="1" fold="1" page="1" pageScale="1" pageWidth="850" pageHeight="1100" math="0" shadow="0">
      <root>
        <mxCell id="0" />
        <mxCell id="1" parent="0" />
        <mxCell id="mg-sEGt7EFXz9tnktvD5-1" style="edgeStyle=orthogonalEdgeStyle;rounded=0;orthogonalLoop=1;jettySize=auto;html=1;entryX=0;entryY=0.5;entryDx=0;entryDy=0;" edge="1" parent="1" source="mg-sEGt7EFXz9tnktvD5-2" target="mg-sEGt7EFXz9tnktvD5-4">
          <mxGeometry relative="1" as="geometry" />
        </mxCell>
        <mxCell id="mg-sEGt7EFXz9tnktvD5-2" value="Start" style="strokeWidth=2;html=1;shape=mxgraph.flowchart.start_1;whiteSpace=wrap;" vertex="1" parent="1">
          <mxGeometry x="170" y="285" width="110" height="90" as="geometry" />
        </mxCell>
        <mxCell id="mg-sEGt7EFXz9tnktvD5-3" style="edgeStyle=orthogonalEdgeStyle;rounded=0;orthogonalLoop=1;jettySize=auto;html=1;entryX=0.5;entryY=0;entryDx=0;entryDy=0;" edge="1" parent="1" source="mg-sEGt7EFXz9tnktvD5-4" target="mg-sEGt7EFXz9tnktvD5-8">
          <mxGeometry relative="1" as="geometry" />
        </mxCell>
        <mxCell id="mg-sEGt7EFXz9tnktvD5-4" value="&lt;div align=&quot;left&quot;&gt;&lt;span&gt;&lt;span style=&quot;white-space: pre;&quot;&gt;&#x9;&lt;/span&gt;Declarations&lt;/span&gt;&lt;/div&gt;&lt;div align=&quot;left&quot;&gt;&lt;span&gt;&lt;span style=&quot;white-space: pre;&quot;&gt;&#x9;&lt;/span&gt;&lt;span style=&quot;white-space: pre;&quot;&gt;&#x9;string numberOfHours&lt;/span&gt;&lt;/span&gt;&lt;/div&gt;&lt;div align=&quot;left&quot;&gt;&lt;span&gt;&lt;span style=&quot;white-space: pre;&quot;&gt;&lt;span style=&quot;white-space: pre;&quot;&gt;&#x9;&lt;/span&gt;&lt;span style=&quot;white-space: pre;&quot;&gt;&#x9;string wholeSaleCostOfMateral&lt;/span&gt;&lt;/span&gt;&lt;/span&gt;&lt;/div&gt;" style="rounded=1;whiteSpace=wrap;html=1;absoluteArcSize=1;arcSize=14;strokeWidth=2;align=left;" vertex="1" parent="1">
          <mxGeometry x="400" y="260" width="290" height="140" as="geometry" />
        </mxCell>
        <mxCell id="mg-sEGt7EFXz9tnktvD5-54" style="edgeStyle=orthogonalEdgeStyle;rounded=0;orthogonalLoop=1;jettySize=auto;html=1;entryX=0;entryY=0.5;entryDx=0;entryDy=0;" edge="1" parent="1" source="mg-sEGt7EFXz9tnktvD5-6" target="mg-sEGt7EFXz9tnktvD5-8">
          <mxGeometry relative="1" as="geometry">
            <Array as="points">
              <mxPoint x="290" y="1030" />
              <mxPoint x="290" y="550" />
            </Array>
          </mxGeometry>
        </mxCell>
        <mxCell id="mg-sEGt7EFXz9tnktvD5-6" value="&lt;div&gt;CalculateJobCost()&lt;/div&gt;&lt;div&gt;DisplayJobCost()&lt;/div&gt;" style="verticalLabelPosition=middle;verticalAlign=middle;html=1;shape=process;whiteSpace=wrap;rounded=1;size=0.125;arcSize=6;labelPosition=center;align=center;" vertex="1" parent="1">
          <mxGeometry x="425" y="960" width="240" height="140" as="geometry" />
        </mxCell>
        <mxCell id="mg-sEGt7EFXz9tnktvD5-7" style="edgeStyle=orthogonalEdgeStyle;rounded=0;orthogonalLoop=1;jettySize=auto;html=1;" edge="1" parent="1" source="mg-sEGt7EFXz9tnktvD5-8" target="mg-sEGt7EFXz9tnktvD5-13">
          <mxGeometry relative="1" as="geometry" />
        </mxCell>
        <mxCell id="mg-sEGt7EFXz9tnktvD5-8" value="&lt;div align=&quot;left&quot;&gt;&lt;span style=&quot;white-space: pre;&quot;&gt;&#x9;&lt;/span&gt;input&amp;nbsp;&lt;/div&gt;&lt;div align=&quot;left&quot;&gt;&lt;span style=&quot;white-space: pre;&quot;&gt;&#x9;&lt;span style=&quot;white-space: pre;&quot;&gt;&#x9;&lt;/span&gt;&lt;/span&gt;&lt;span&gt;&lt;span style=&quot;white-space: pre;&quot;&gt;numberOfHours&lt;/span&gt;&lt;/span&gt;&lt;div align=&quot;left&quot;&gt;&lt;span&gt;&lt;span style=&quot;white-space: pre;&quot;&gt;&lt;span style=&quot;white-space: pre;&quot;&gt;&#x9;&lt;/span&gt;&lt;span style=&quot;white-space: pre;&quot;&gt;&#x9;wholeSaleCostOfMateral&lt;/span&gt;&lt;/span&gt;&lt;/span&gt;&lt;/div&gt;&lt;/div&gt;" style="shape=parallelogram;html=1;strokeWidth=2;perimeter=parallelogramPerimeter;whiteSpace=wrap;rounded=1;arcSize=12;size=0.23;" vertex="1" parent="1">
          <mxGeometry x="400" y="490" width="290" height="120" as="geometry" />
        </mxCell>
        <mxCell id="mg-sEGt7EFXz9tnktvD5-9" style="edgeStyle=orthogonalEdgeStyle;rounded=0;orthogonalLoop=1;jettySize=auto;html=1;entryX=0.5;entryY=1;entryDx=0;entryDy=0;" edge="1" parent="1" source="mg-sEGt7EFXz9tnktvD5-13" target="mg-sEGt7EFXz9tnktvD5-15">
          <mxGeometry relative="1" as="geometry" />
        </mxCell>
        <mxCell id="mg-sEGt7EFXz9tnktvD5-10" value="No" style="edgeLabel;html=1;align=center;verticalAlign=middle;resizable=0;points=[];" vertex="1" connectable="0" parent="mg-sEGt7EFXz9tnktvD5-9">
          <mxGeometry x="-0.1811" y="1" relative="1" as="geometry">
            <mxPoint as="offset" />
          </mxGeometry>
        </mxCell>
        <mxCell id="mg-sEGt7EFXz9tnktvD5-11" style="edgeStyle=orthogonalEdgeStyle;rounded=0;orthogonalLoop=1;jettySize=auto;html=1;" edge="1" parent="1" source="mg-sEGt7EFXz9tnktvD5-13" target="mg-sEGt7EFXz9tnktvD5-6">
          <mxGeometry relative="1" as="geometry" />
        </mxCell>
        <mxCell id="mg-sEGt7EFXz9tnktvD5-12" value="&lt;div&gt;Yes&lt;/div&gt;" style="edgeLabel;html=1;align=center;verticalAlign=middle;resizable=0;points=[];" vertex="1" connectable="0" parent="mg-sEGt7EFXz9tnktvD5-11">
          <mxGeometry x="-0.0167" y="3" relative="1" as="geometry">
            <mxPoint x="-3" as="offset" />
          </mxGeometry>
        </mxCell>
        <mxCell id="mg-sEGt7EFXz9tnktvD5-13" value="If numberOfHours is not 0" style="strokeWidth=2;html=1;shape=mxgraph.flowchart.decision;whiteSpace=wrap;" vertex="1" parent="1">
          <mxGeometry x="420" y="680" width="250" height="200" as="geometry" />
        </mxCell>
        <mxCell id="mg-sEGt7EFXz9tnktvD5-15" value="DisplayProgramExitMessage()" style="rounded=1;whiteSpace=wrap;html=1;absoluteArcSize=1;arcSize=14;strokeWidth=2;" vertex="1" parent="1">
          <mxGeometry x="800" y="570" width="200" height="120" as="geometry" />
        </mxCell>
        <mxCell id="mg-sEGt7EFXz9tnktvD5-56" style="edgeStyle=orthogonalEdgeStyle;rounded=0;orthogonalLoop=1;jettySize=auto;html=1;entryX=0.5;entryY=0;entryDx=0;entryDy=0;" edge="1" parent="1" source="mg-sEGt7EFXz9tnktvD5-23" target="mg-sEGt7EFXz9tnktvD5-55">
          <mxGeometry relative="1" as="geometry" />
        </mxCell>
        <mxCell id="mg-sEGt7EFXz9tnktvD5-23" value="DisplayProgramExitMessage()" style="strokeWidth=2;html=1;shape=mxgraph.flowchart.start_1;whiteSpace=wrap;" vertex="1" parent="1">
          <mxGeometry x="1160" y="285" width="230" height="90" as="geometry" />
        </mxCell>
        <mxCell id="mg-sEGt7EFXz9tnktvD5-25" style="edgeStyle=orthogonalEdgeStyle;rounded=0;orthogonalLoop=1;jettySize=auto;html=1;entryX=0.5;entryY=0;entryDx=0;entryDy=0;" edge="1" parent="1" source="mg-sEGt7EFXz9tnktvD5-26" target="mg-sEGt7EFXz9tnktvD5-28">
          <mxGeometry relative="1" as="geometry" />
        </mxCell>
        <mxCell id="mg-sEGt7EFXz9tnktvD5-26" value="CalculateJobCost()" style="strokeWidth=2;html=1;shape=mxgraph.flowchart.start_1;whiteSpace=wrap;" vertex="1" parent="1">
          <mxGeometry x="1550" y="285" width="230" height="90" as="geometry" />
        </mxCell>
        <mxCell id="mg-sEGt7EFXz9tnktvD5-27" style="edgeStyle=orthogonalEdgeStyle;rounded=0;orthogonalLoop=1;jettySize=auto;html=1;entryX=0.5;entryY=0;entryDx=0;entryDy=0;" edge="1" parent="1" source="mg-sEGt7EFXz9tnktvD5-28" target="mg-sEGt7EFXz9tnktvD5-29">
          <mxGeometry relative="1" as="geometry" />
        </mxCell>
        <mxCell id="mg-sEGt7EFXz9tnktvD5-28" value="&lt;div align=&quot;left&quot;&gt;&lt;span&gt;&lt;span style=&quot;white-space: pre;&quot;&gt;&#x9;&lt;/span&gt;Declarations&lt;/span&gt;&lt;/div&gt;&lt;div align=&quot;left&quot;&gt;&lt;span&gt;&lt;span style=&quot;white-space: pre;&quot;&gt;&#x9;&lt;/span&gt;&lt;span style=&quot;white-space: pre;&quot;&gt;&#x9;string numberOfHours&lt;/span&gt;&lt;/span&gt;&lt;/div&gt;&lt;div align=&quot;left&quot;&gt;&lt;span&gt;&lt;span style=&quot;white-space: pre;&quot;&gt;&lt;span style=&quot;white-space: pre;&quot;&gt;&#x9;&lt;/span&gt;&lt;span style=&quot;white-space: pre;&quot;&gt;&#x9;string wholeSaleCostOfMateral&lt;/span&gt;&lt;/span&gt;&lt;/span&gt;&lt;/div&gt;&lt;div align=&quot;left&quot;&gt;&lt;span&gt;&lt;span style=&quot;white-space: pre;&quot;&gt;&lt;span style=&quot;white-space: pre;&quot;&gt;&#x9;&lt;/span&gt;&lt;span style=&quot;white-space: pre;&quot;&gt;&#x9;constant laborCost = 30&lt;/span&gt;&lt;/span&gt;&lt;/span&gt;&lt;/div&gt;&lt;div align=&quot;left&quot;&gt;&lt;span&gt;&lt;span style=&quot;white-space: pre;&quot;&gt;&lt;span style=&quot;white-space: pre;&quot;&gt;&lt;span style=&quot;white-space: pre;&quot;&gt;&#x9;&lt;/span&gt;&lt;span style=&quot;white-space: pre;&quot;&gt;&#x9;num wholeSalePercent = 120&lt;/span&gt;&lt;/span&gt;&lt;/span&gt;&lt;/span&gt;&lt;/div&gt;" style="rounded=1;whiteSpace=wrap;html=1;absoluteArcSize=1;arcSize=14;strokeWidth=2;" vertex="1" parent="1">
          <mxGeometry x="1505" y="475" width="320" height="155" as="geometry" />
        </mxCell>
        <mxCell id="mg-sEGt7EFXz9tnktvD5-29" value="&lt;div align=&quot;left&quot;&gt;&lt;span style=&quot;white-space: pre;&quot;&gt;&#x9;      &lt;/span&gt;&lt;span style=&quot;white-space: pre;&quot;&gt;&#x9; &lt;span style=&quot;white-space: pre;&quot;&gt;&#x9;&lt;/span&gt;&lt;/span&gt;Output&lt;/div&gt;&lt;div&gt;&lt;span style=&quot;white-space: pre;&quot;&gt;&#x9;&lt;/span&gt;&lt;span style=&quot;white-space: pre;&quot;&gt;&#x9;&lt;/span&gt;&lt;span style=&quot;white-space: pre;&quot;&gt;&#x9;&lt;/span&gt;&lt;span style=&quot;white-space: pre;&quot;&gt;&#x9;&lt;/span&gt;&lt;span&gt;&lt;span style=&quot;white-space: pre;&quot;&gt;numberOfHours&lt;/span&gt;&lt;/span&gt;.ParseToInt()&lt;/div&gt;&lt;div&gt;&lt;span style=&quot;white-space: pre;&quot;&gt;&#x9;&lt;/span&gt;&lt;span style=&quot;white-space: pre;&quot;&gt;&#x9;&lt;/span&gt;&lt;span style=&quot;white-space: pre;&quot;&gt;&#x9;&lt;/span&gt;&lt;span style=&quot;white-space: pre;&quot;&gt;&#x9;&lt;/span&gt;&lt;span&gt;&lt;span style=&quot;white-space: pre;&quot;&gt;&lt;span style=&quot;white-space: pre;&quot;&gt;wholeSaleCostOfMateral&lt;/span&gt;&lt;/span&gt;&lt;/span&gt;.ParseToInt()&lt;/div&gt;&lt;div align=&quot;left&quot;&gt;&lt;span style=&quot;white-space: pre;&quot;&gt;&#x9;&lt;/span&gt;&lt;span style=&quot;white-space: pre;&quot;&gt;&#x9;&lt;/span&gt;&lt;span style=&quot;white-space: pre;&quot;&gt;&#x9;&lt;/span&gt;&lt;span style=&quot;white-space: pre;&quot;&gt;&#x9;&lt;/span&gt;&lt;span&gt;&lt;span style=&quot;white-space: pre;&quot;&gt;numberOfHours &lt;/span&gt;&lt;/span&gt;*&amp;nbsp;&lt;span&gt;&lt;span style=&quot;white-space: pre;&quot;&gt;&lt;span style=&quot;white-space: pre;&quot;&gt;laborCost + &lt;/span&gt;&lt;/span&gt;&lt;/span&gt;&lt;/div&gt;&lt;div align=&quot;left&quot;&gt;&lt;span&gt;&lt;span style=&quot;white-space: pre;&quot;&gt;&lt;span style=&quot;white-space: pre;&quot;&gt;&lt;span style=&quot;white-space: pre;&quot;&gt;&#x9;&lt;/span&gt;&lt;span style=&quot;white-space: pre;&quot;&gt;&#x9;&lt;/span&gt;&lt;span style=&quot;white-space: pre;&quot;&gt;&#x9;&lt;/span&gt;&lt;span style=&quot;white-space: pre;&quot;&gt;&#x9;&lt;/span&gt;((&lt;/span&gt;&lt;/span&gt;&lt;/span&gt;&lt;span&gt;&lt;span style=&quot;white-space: pre;&quot;&gt;&lt;span style=&quot;white-space: pre;&quot;&gt;&lt;span style=&quot;white-space: pre;&quot;&gt;wholeSalePercent / 100) * &lt;/span&gt;&lt;/span&gt;&lt;/span&gt;&lt;/span&gt;&lt;span&gt;&lt;span style=&quot;white-space: pre;&quot;&gt;&lt;span style=&quot;white-space: pre;&quot;&gt;wholeSaleCostOfMateral&lt;/span&gt;&lt;/span&gt;&lt;/span&gt;&lt;span&gt;&lt;span style=&quot;white-space: pre;&quot;&gt;&lt;span style=&quot;white-space: pre;&quot;&gt;)&lt;/span&gt;&lt;/span&gt;&lt;/span&gt;&lt;/div&gt;" style="shape=parallelogram;html=1;strokeWidth=2;perimeter=parallelogramPerimeter;whiteSpace=wrap;rounded=1;arcSize=12;size=0.23;align=left;" vertex="1" parent="1">
          <mxGeometry x="1395" y="760" width="540" height="190" as="geometry" />
        </mxCell>
        <mxCell id="mg-sEGt7EFXz9tnktvD5-30" style="edgeStyle=orthogonalEdgeStyle;rounded=0;orthogonalLoop=1;jettySize=auto;html=1;" edge="1" parent="1" source="mg-sEGt7EFXz9tnktvD5-31" target="mg-sEGt7EFXz9tnktvD5-33">
          <mxGeometry relative="1" as="geometry" />
        </mxCell>
        <mxCell id="mg-sEGt7EFXz9tnktvD5-31" value="DisplayJobCost()" style="strokeWidth=2;html=1;shape=mxgraph.flowchart.start_1;whiteSpace=wrap;" vertex="1" parent="1">
          <mxGeometry x="2200" y="285" width="230" height="90" as="geometry" />
        </mxCell>
        <mxCell id="mg-sEGt7EFXz9tnktvD5-32" style="edgeStyle=orthogonalEdgeStyle;rounded=0;orthogonalLoop=1;jettySize=auto;html=1;" edge="1" parent="1" source="mg-sEGt7EFXz9tnktvD5-33" target="mg-sEGt7EFXz9tnktvD5-38">
          <mxGeometry relative="1" as="geometry" />
        </mxCell>
        <mxCell id="mg-sEGt7EFXz9tnktvD5-33" value="&lt;div align=&quot;left&quot;&gt;&lt;span&gt;&lt;span style=&quot;white-space: pre;&quot;&gt;&#x9;&lt;/span&gt;Declarations&lt;/span&gt;&lt;/div&gt;&lt;div align=&quot;left&quot;&gt;&lt;span&gt;&lt;span style=&quot;white-space: pre;&quot;&gt;&#x9;&lt;/span&gt;&lt;span style=&quot;white-space: pre;&quot;&gt;&#x9;string &lt;/span&gt;&lt;/span&gt;CalculateJobCostValue&lt;/div&gt;" style="rounded=1;whiteSpace=wrap;html=1;absoluteArcSize=1;arcSize=14;strokeWidth=2;" vertex="1" parent="1">
          <mxGeometry x="2155" y="462.5" width="320" height="175" as="geometry" />
        </mxCell>
        <mxCell id="mg-sEGt7EFXz9tnktvD5-34" value="Return" style="strokeWidth=2;html=1;shape=mxgraph.flowchart.terminator;whiteSpace=wrap;" vertex="1" parent="1">
          <mxGeometry x="1225" y="710" width="100" height="60" as="geometry" />
        </mxCell>
        <mxCell id="mg-sEGt7EFXz9tnktvD5-36" value="Return" style="strokeWidth=2;html=1;shape=mxgraph.flowchart.terminator;whiteSpace=wrap;" vertex="1" parent="1">
          <mxGeometry x="1615" y="1090" width="100" height="60" as="geometry" />
        </mxCell>
        <mxCell id="mg-sEGt7EFXz9tnktvD5-37" style="edgeStyle=orthogonalEdgeStyle;rounded=0;orthogonalLoop=1;jettySize=auto;html=1;entryX=0.5;entryY=0;entryDx=0;entryDy=0;entryPerimeter=0;" edge="1" parent="1" source="mg-sEGt7EFXz9tnktvD5-29" target="mg-sEGt7EFXz9tnktvD5-36">
          <mxGeometry relative="1" as="geometry" />
        </mxCell>
        <mxCell id="mg-sEGt7EFXz9tnktvD5-38" value="&lt;div align=&quot;left&quot;&gt;&lt;span style=&quot;white-space: pre;&quot;&gt;&#x9;&lt;/span&gt;&lt;span style=&quot;white-space: pre;&quot;&gt;&#x9;&lt;/span&gt;&lt;span style=&quot;white-space: pre;&quot;&gt;&#x9;&lt;/span&gt;&lt;span style=&quot;white-space: pre;&quot;&gt;&#x9;&lt;/span&gt;Output&lt;/div&gt;&lt;div align=&quot;left&quot;&gt;&lt;span style=&quot;white-space: pre;&quot;&gt;&#x9;&lt;/span&gt;&lt;span style=&quot;white-space: pre;&quot;&gt;&#x9;&lt;/span&gt;&lt;span style=&quot;white-space: pre;&quot;&gt;&#x9;&lt;/span&gt;&lt;span style=&quot;white-space: pre;&quot;&gt;&#x9;&lt;/span&gt;&lt;span style=&quot;white-space: pre;&quot;&gt;&#x9;Job cost: &lt;/span&gt;CalculateJobCostValue&lt;/div&gt;" style="shape=parallelogram;html=1;strokeWidth=2;perimeter=parallelogramPerimeter;whiteSpace=wrap;rounded=1;arcSize=12;size=0.23;align=left;labelPosition=center;verticalLabelPosition=middle;verticalAlign=middle;" vertex="1" parent="1">
          <mxGeometry x="1985" y="760" width="660" height="290" as="geometry" />
        </mxCell>
        <mxCell id="mg-sEGt7EFXz9tnktvD5-39" value="Return" style="strokeWidth=2;html=1;shape=mxgraph.flowchart.terminator;whiteSpace=wrap;" vertex="1" parent="1">
          <mxGeometry x="2265" y="1160" width="100" height="60" as="geometry" />
        </mxCell>
        <mxCell id="mg-sEGt7EFXz9tnktvD5-40" style="edgeStyle=orthogonalEdgeStyle;rounded=0;orthogonalLoop=1;jettySize=auto;html=1;entryX=0.5;entryY=0;entryDx=0;entryDy=0;entryPerimeter=0;" edge="1" parent="1" source="mg-sEGt7EFXz9tnktvD5-38" target="mg-sEGt7EFXz9tnktvD5-39">
          <mxGeometry relative="1" as="geometry" />
        </mxCell>
        <mxCell id="mg-sEGt7EFXz9tnktvD5-46" value="End" style="strokeWidth=2;html=1;shape=mxgraph.flowchart.terminator;whiteSpace=wrap;" vertex="1" parent="1">
          <mxGeometry x="850" y="402.5" width="100" height="60" as="geometry" />
        </mxCell>
        <mxCell id="mg-sEGt7EFXz9tnktvD5-53" style="edgeStyle=orthogonalEdgeStyle;rounded=0;orthogonalLoop=1;jettySize=auto;html=1;entryX=0.5;entryY=1;entryDx=0;entryDy=0;entryPerimeter=0;" edge="1" parent="1" source="mg-sEGt7EFXz9tnktvD5-15" target="mg-sEGt7EFXz9tnktvD5-46">
          <mxGeometry relative="1" as="geometry" />
        </mxCell>
        <mxCell id="mg-sEGt7EFXz9tnktvD5-55" value="&lt;div align=&quot;left&quot;&gt;&lt;span style=&quot;white-space: pre;&quot;&gt;&lt;span style=&quot;white-space: pre;&quot;&gt;&#x9;&lt;/span&gt;&lt;span style=&quot;white-space: pre;&quot;&gt;&#x9;&lt;/span&gt;&lt;span style=&quot;white-space: pre;&quot;&gt;&#x9;&lt;/span&gt;Output&lt;/span&gt;&lt;/div&gt;&lt;div align=&quot;left&quot;&gt;&lt;span style=&quot;white-space: pre;&quot;&gt;&lt;span style=&quot;white-space: pre;&quot;&gt;&#x9;&lt;/span&gt;&lt;span style=&quot;white-space: pre;&quot;&gt;&#x9;&lt;/span&gt;&lt;span style=&quot;white-space: pre;&quot;&gt;&#x9;&lt;/span&gt;&lt;span style=&quot;white-space: pre;&quot;&gt;&#x9;&lt;/span&gt;Program exiting...&lt;/span&gt;&lt;/div&gt;&lt;div align=&quot;left&quot;&gt;&lt;br&gt;&lt;/div&gt;" style="shape=parallelogram;html=1;strokeWidth=2;perimeter=parallelogramPerimeter;whiteSpace=wrap;rounded=1;arcSize=12;size=0.23;align=left;" vertex="1" parent="1">
          <mxGeometry x="1090" y="475" width="370" height="140" as="geometry" />
        </mxCell>
        <mxCell id="mg-sEGt7EFXz9tnktvD5-57" style="edgeStyle=orthogonalEdgeStyle;rounded=0;orthogonalLoop=1;jettySize=auto;html=1;entryX=0.5;entryY=0;entryDx=0;entryDy=0;entryPerimeter=0;" edge="1" parent="1" source="mg-sEGt7EFXz9tnktvD5-55" target="mg-sEGt7EFXz9tnktvD5-34">
          <mxGeometry relative="1" as="geometry" />
        </mxCell>
      </root>
    </mxGraphModel>
  </diagram>
</mxfile>
